<svg width="20" height="20" viewBox="0 0 20 20" fill="none" xmlns="http://www.w3.org/2000/svg">
<path fill-rule="evenodd" clip-rule="evenodd" d="M9.99987 1.04102C6.43303 1.04102 3.54154 3.93251 3.54154 7.49935V8.0861C3.54154 8.66687 3.36963 9.23464 3.04748 9.71787L2.09031 11.1536C0.979394 12.82 1.82748 15.085 3.75964 15.612C4.38932 15.7837 5.02431 15.929 5.66299 16.0478L5.66457 16.052C6.3054 17.7619 8.01816 18.9577 9.99982 18.9577C11.9815 18.9577 13.6942 17.7619 14.3351 16.052L14.3366 16.0478C14.9753 15.929 15.6104 15.7837 16.2401 15.612C18.1723 15.085 19.0203 12.82 17.9094 11.1536L16.9523 9.71787C16.6301 9.23464 16.4582 8.66687 16.4582 8.0861V7.49935C16.4582 3.93251 13.5667 1.04102 9.99987 1.04102ZM12.8135 16.2802C10.9444 16.5035 9.05521 16.5035 7.18608 16.2801C7.77854 17.1314 8.80901 17.7077 9.99982 17.7077C11.1906 17.7077 12.2211 17.1314 12.8135 16.2802ZM4.79154 7.49935C4.79154 4.62287 7.12339 2.29102 9.99987 2.29102C12.8764 2.29102 15.2082 4.62287 15.2082 7.49935V8.0861C15.2082 8.91365 15.4532 9.72268 15.9122 10.4112L16.8694 11.847C17.507 12.8035 17.0202 14.1035 15.9112 14.406C12.041 15.4615 7.95875 15.4615 4.08854 14.406C2.97951 14.1035 2.49273 12.8035 3.13037 11.847L4.08754 10.4112C4.54658 9.72268 4.79154 8.91365 4.79154 8.0861V7.49935Z" fill="#2D2D2D"/>
</svg>
