<svg width="17" height="17" viewBox="0 0 17 17" fill="none" xmlns="http://www.w3.org/2000/svg">
<path d="M9.5 15.7021C9.77614 15.7021 10 15.926 10 16.2021C9.99976 16.478 9.776 16.7021 9.5 16.7021H0.5C0.224005 16.7021 0.000237965 16.478 0 16.2021C0 15.926 0.223858 15.7021 0.5 15.7021H9.5ZM13.5635 0.929645C13.9453 0.547824 14.5382 0.51153 14.9326 0.830036L15.0088 0.899372L16.4229 2.31343L16.4912 2.38961C16.8097 2.78385 16.7741 3.37592 16.3926 3.75777L6.80371 13.3466L6.80273 13.3457L3.78125 14.0117L3.67676 14.0214C3.47173 14.0141 3.30815 13.8505 3.30078 13.6455L3.31055 13.541L3.97656 10.5185H3.97559L13.5635 0.929645ZM14.3242 1.59957L14.2705 1.63668L4.87207 11.0351L4.47266 12.8486L6.28711 12.4492L15.6855 3.05074C15.7188 3.01732 15.7276 2.98426 15.7295 2.96578L14.3564 1.59273C14.3483 1.59354 14.3368 1.5943 14.3242 1.59957Z" fill="#2D2D2D"/>
</svg>
