<svg width="40" height="40" viewBox="0 0 40 40" fill="none" xmlns="http://www.w3.org/2000/svg">
<path fill-rule="evenodd" clip-rule="evenodd" d="M26.6673 11.2497C25.5167 11.2497 24.584 12.1824 24.584 13.333C24.584 14.4836 25.5167 15.4163 26.6673 15.4163C27.8179 15.4163 28.7507 14.4836 28.7507 13.333C28.7507 12.1824 27.8179 11.2497 26.6673 11.2497ZM22.084 13.333C22.084 10.8017 24.136 8.74968 26.6673 8.74968C29.1986 8.74968 31.2507 10.8017 31.2507 13.333C31.2507 15.8643 29.1986 17.9163 26.6673 17.9163C24.136 17.9163 22.084 15.8643 22.084 13.333Z" fill="#BDBDBD"/>
<path fill-rule="evenodd" clip-rule="evenodd" d="M19.905 2.08301H20.0963C23.9436 2.08299 26.9587 2.08297 29.3111 2.39925C31.719 2.72299 33.6191 3.39855 35.1104 4.8899C36.6018 6.38125 37.2773 8.28129 37.6011 10.6892C37.9174 13.0417 37.9173 16.0567 37.9173 19.9041V20.0953C37.9173 23.9426 37.9174 26.9577 37.6011 29.3102C37.2773 31.7181 36.6018 33.6181 35.1104 35.1094C33.6191 36.6008 31.719 37.2764 29.3111 37.6001C26.9587 37.9164 23.9436 37.9164 20.0963 37.9163H19.905C16.0577 37.9164 13.0426 37.9164 10.6902 37.6001C8.28227 37.2764 6.38223 36.6008 4.89088 35.1094C3.39953 33.6181 2.72396 31.7181 2.40023 29.3102C2.08395 26.9577 2.08396 23.9426 2.08398 20.0953V19.904C2.08396 16.0567 2.08395 13.0417 2.40023 10.6892C2.72396 8.28129 3.39953 6.38125 4.89088 4.8899C6.38223 3.39855 8.28227 2.72299 10.6902 2.39925C13.0426 2.08297 16.0577 2.08299 19.905 2.08301ZM6.65865 33.3417C5.70922 32.3923 5.1644 31.1077 4.87794 28.977C4.62214 27.0745 4.58892 24.6472 4.58462 21.3999L7.07642 19.2196C8.09995 18.324 9.64256 18.3754 10.6042 19.3371L17.7538 26.4866C19.3287 28.0615 21.8078 28.2762 23.6301 26.9956L24.1271 26.6463C25.5574 25.6411 27.4925 25.7576 28.7919 26.9271L34.1644 31.7624C34.2229 31.815 34.285 31.8611 34.3498 31.9007C34.0804 32.4688 33.7485 32.9359 33.3427 33.3417C32.3932 34.2911 31.1087 34.8359 28.978 35.1224C26.8114 35.4137 23.9644 35.4163 20.0007 35.4163C16.0369 35.4163 13.1899 35.4137 11.0233 35.1224C8.89261 34.8359 7.60807 34.2911 6.65865 33.3417ZM11.0233 4.87696C8.89261 5.16342 7.60807 5.70824 6.65865 6.65767C5.70922 7.6071 5.1644 8.89163 4.87794 11.0223C4.63604 12.8215 4.59319 15.0898 4.58561 18.0771L5.43017 17.3381C7.44421 15.5759 10.4797 15.6769 12.372 17.5693L19.5216 24.7188C20.2374 25.4347 21.3643 25.5323 22.1926 24.9502L22.6896 24.6009C25.0734 22.9256 28.2986 23.1197 30.4643 25.0688L35.0876 29.2298C35.0999 29.1469 35.1119 29.0626 35.1234 28.977C35.4147 26.8104 35.4173 23.9634 35.4173 19.9997C35.4173 16.036 35.4147 13.1889 35.1234 11.0223C34.8369 8.89163 34.2921 7.6071 33.3427 6.65767C32.3932 5.70824 31.1087 5.16342 28.978 4.87696C26.8114 4.58566 23.9644 4.58301 20.0007 4.58301C16.0369 4.58301 13.1899 4.58566 11.0233 4.87696Z" fill="#BDBDBD"/>
</svg>
