<svg width="24" height="24" viewBox="0 0 24 24" fill="none" xmlns="http://www.w3.org/2000/svg">
<g filter="url(#filter0_d_1379_5156)">
<path d="M4.82832 5.82813C6.59901 4.05723 9.46968 4.05735 11.2405 5.82813L12.0842 6.67188L12.928 5.82813L12.9328 5.83301C14.7129 4.22812 17.4579 4.28263 19.1721 5.99707C20.8863 7.71156 20.9407 10.4569 19.3362 12.2373L19.3411 12.2422L12.0842 19.5L4.82832 12.2422C3.11282 10.5264 3.05883 7.7774 4.66718 5.99707L4.82832 5.82813ZM10.5334 6.53516C9.19624 5.19798 7.0545 5.15631 5.66719 6.41016L5.53535 6.53516C4.15501 7.91577 4.15506 10.1545 5.53535 11.5352L12.0842 18.085L18.5618 11.6064C18.5722 11.5937 18.5828 11.5807 18.594 11.5684C19.8051 10.2244 19.8021 8.17371 18.5862 6.83203L18.4651 6.7041C17.1293 5.36802 14.9896 5.32516 13.6028 6.5752C13.5915 6.58539 13.5783 6.59393 13.5666 6.60352L12.7922 7.37891C12.6047 7.56649 12.3495 7.67188 12.0842 7.67188C11.8191 7.67177 11.5646 7.56639 11.3772 7.37891L10.5334 6.53516Z" fill="#2D2D2D"/>
</g>
<defs>
<filter id="filter0_d_1379_5156" x="1.5" y="3.5" width="21" height="19" filterUnits="userSpaceOnUse" color-interpolation-filters="sRGB">
<feFlood flood-opacity="0" result="BackgroundImageFix"/>
<feColorMatrix in="SourceAlpha" type="matrix" values="0 0 0 0 0 0 0 0 0 0 0 0 0 0 0 0 0 0 127 0" result="hardAlpha"/>
<feOffset dy="1"/>
<feGaussianBlur stdDeviation="1"/>
<feComposite in2="hardAlpha" operator="out"/>
<feColorMatrix type="matrix" values="0 0 0 0 0 0 0 0 0 0 0 0 0 0 0 0 0 0 0.25 0"/>
<feBlend mode="normal" in2="BackgroundImageFix" result="effect1_dropShadow_1379_5156"/>
<feBlend mode="normal" in="SourceGraphic" in2="effect1_dropShadow_1379_5156" result="shape"/>
</filter>
</defs>
</svg>
