<svg  viewBox="0 0 24 24" fill="none" xmlns="http://www.w3.org/2000/svg">
<path d="M18.4191 4.16809C18.7136 3.928 19.1484 3.94532 19.423 4.21984C19.7156 4.51268 19.7156 4.98755 19.423 5.28039L12.882 11.8204L19.423 18.3614L19.4738 18.4191C19.7141 18.7136 19.6976 19.1484 19.423 19.423C19.1484 19.6976 18.7136 19.7141 18.4191 19.4738L18.3614 19.423L11.8204 12.882L5.28039 19.423L5.22375 19.4738C4.92924 19.7142 4.49454 19.6974 4.21984 19.423C3.92695 19.1301 3.92695 18.6543 4.21984 18.3614L10.7599 11.8204L4.21984 5.28039L4.16809 5.22375C3.92778 4.92917 3.94524 4.49445 4.21984 4.21984C4.49445 3.94524 4.92917 3.92778 5.22375 4.16809L5.28039 4.21984L11.8204 10.7599L18.3614 4.21984L18.4191 4.16809Z" fill="#2D2D2D"/>
</svg>
