<svg  viewBox="0 0 24 24" fill="none" xmlns="http://www.w3.org/2000/svg">
<path d="M17.3191 19.4472V20.4472H6.67966V19.4472H17.3191ZM18.3191 18.4472V10.5527C18.3191 10.0005 17.8713 9.55279 17.3191 9.55267H6.67966C6.12738 9.55267 5.67967 10.0004 5.67967 10.5527V18.4472C5.67967 18.9995 6.12738 19.4472 6.67966 19.4472V20.4472L6.47556 20.4365C5.53402 20.341 4.78589 19.5929 4.69043 18.6513L4.67969 18.4472V10.5527C4.67969 9.51702 5.4669 8.66568 6.47556 8.56342L6.67966 8.55267H17.3191L17.5232 8.56342C18.5318 8.66578 19.3191 9.5171 19.3191 10.5527V18.4472L19.3084 18.6513C19.2129 19.5928 18.4647 20.3409 17.5232 20.4365L17.3191 20.4472V19.4472C17.8713 19.4471 18.3191 18.9994 18.3191 18.4472Z" fill="#A2A2A2"/>
<path d="M14.9994 7.51758C14.9994 5.86072 13.6562 4.51758 11.9994 4.51758C10.3425 4.51758 8.99939 5.86072 8.99939 7.51758V8.51758H14.9994V7.51758ZM15.9994 9.51758H7.99939V7.51758C7.99939 5.30844 9.79025 3.51758 11.9994 3.51758C14.2085 3.51758 15.9994 5.30844 15.9994 7.51758V9.51758Z" fill="#A2A2A2"/>
<path d="M13.5682 15.0649C13.5682 15.9318 12.8655 16.6345 11.9987 16.6345C11.1318 16.6345 10.4291 15.9318 10.4291 15.0649C10.4291 14.1981 11.1318 13.4954 11.9987 13.4954C12.8655 13.4954 13.5682 14.1981 13.5682 15.0649Z" fill="#A2A2A2"/>
<path d="M11.4994 14.8274H12.4994V20.447H11.4994V14.8274Z" fill="#A2A2A2"/>
</svg>
