<svg version="1.1" xmlns="http://www.w3.org/2000/svg" xmlns:xlink="http://www.w3.org/1999/xlink" width="1024px" height="1024px" viewBox="0,0,256,256"><g transform="translate(51.2,51.2) scale(0.6,0.6)"><g fill="#000000" fill-rule="nonzero" stroke="none" stroke-width="1" stroke-linecap="butt" stroke-linejoin="miter" stroke-miterlimit="10" stroke-dasharray="" stroke-dashoffset="0" font-family="none" font-weight="none" font-size="none" text-anchor="none" style="mix-blend-mode: normal"><g transform="translate(0.03239,-1.79427) scale(0.25,0.25)"><path d="M776,328M704,328c0,39.7645 32.2355,72 72,72c39.7645,0 72,-32.2355 72,-72c0,-39.7645 -32.2355,-72 -72,-72c-39.7645,0 -72,32.2355 -72,72z"></path><path d="M999.904,116.608c-5.57875,-6.40708 -13.47629,-10.33282 -21.952,-10.912l-456.192,-31.904c-10.48383,-0.81234 -20.68338,3.65146 -27.2,11.904l-92.192,114.848c-9.65414,12.01492 -9.37168,29.20476 0.672,40.896l146.144,169.952l-147.456,194.656l36.48,-173.376c2.46856,-11.73377 -1.82977,-23.86297 -11.136,-31.424l-191.456,-155.744l79.616,-125.696c6.44757,-10.19674 6.61239,-23.15302 0.42631,-33.51048c-6.18608,-10.35747 -17.67154,-16.35551 -29.70631,-15.51352l-240.192,16.768c-8.4714,0.59034 -16.36075,4.52369 -21.93061,10.93383c-5.56985,6.41013 -8.36339,14.77132 -7.76539,23.24217l55.808,798.016c0.60618,8.48882 4.56224,16.38841 10.99665,21.9585c6.43441,5.57008 14.81926,8.35366 23.30735,7.7375l176.512,-13.184c17.632,-1.312 30.848,-16.672 29.504,-34.272c-1.344,-17.6 -16.576,-31.04 -34.304,-29.536l-144.448,10.784l-6.432,-92.512l125.312,-12.576c8.45032,-0.84068 16.21994,-5.00577 21.59775,-11.57797c5.3778,-6.5722 7.92271,-15.01249 7.07425,-23.46203c-1.83434,-17.55278 -17.4714,-30.34804 -35.04,-28.672l-123.392,12.416l-40.416,-577.664l145.152,-10.144l-60.96,96.224c-8.67643,13.6992 -5.73434,31.72296 6.848,41.952l198.4,161.344l-58.752,279.296c-0.95033,4.90456 -0.69779,9.96638 0.736,14.752c-0.18581,3.73425 0.29087,7.47192 1.408,11.04l51.52,154.56c4.00909,12.06883 14.79049,20.61353 27.456,21.76l523.104,47.552c8.56741,0.7691 17.08456,-1.93643 23.63761,-7.50863c6.55305,-5.5722 10.5924,-13.54374 11.21039,-22.12337l55.776,-798.048c0.58524,-8.46799 -2.21112,-16.82252 -7.776,-23.232zM900.992,747.456l-412.576,-39.648c-8.47051,-0.94531 -16.96279,1.57999 -23.54046,7.00008c-6.57767,5.4201 -10.67998,13.27292 -11.37154,21.76792c-0.81111,8.44886 1.76761,16.87386 7.16877,23.42127c5.40116,6.54741 13.18225,10.68081 21.63123,11.49073l414.24,39.808l-6.272,89.536l-469.728,-42.72l-39.584,-118.72l234.816,-310.016c9.12939,-12.01042 8.60896,-28.77112 -1.248,-40.192l-145.632,-169.344l65.088,-81.056l407.584,28.48z"></path></g></g></g></svg>