<svg width="24" height="24" viewBox="0 0 24 24" fill="none" xmlns="http://www.w3.org/2000/svg">
<path d="M19.0273 6.56641C20.0056 6.66269 20.782 7.46508 20.8271 8.4668L21.3643 20.3818C21.4122 21.4494 20.6163 22.3525 19.5771 22.4609L19.3672 22.4717V21.4717C19.9013 21.4714 20.3343 21.0534 20.3652 20.5322L20.3662 20.4268L19.8281 8.51172C19.804 7.9775 19.3639 7.55664 18.8291 7.55664H5.10938C4.5727 7.55664 4.13188 7.98036 4.11035 8.5166L3.63184 20.4316C3.60917 20.9991 4.06291 21.4717 4.63086 21.4717V22.4717L4.4209 22.4609C3.45407 22.3603 2.69663 21.5716 2.63477 20.6016L2.63281 20.3916L3.11035 8.47656C3.15072 7.47114 3.92874 6.66347 4.91016 6.56641L5.10938 6.55664H18.8291L19.0273 6.56641ZM19.3672 21.4717V22.4717H4.63086V21.4717H19.3672Z" fill="#2D2D2D"/>
<path d="M12.0029 0.773438C14.1134 0.773438 15.8242 2.48429 15.8242 4.59473V9.83203H14.8242V4.59473C14.8242 3.03657 13.5611 1.77344 12.0029 1.77344C10.4448 1.77344 9.18164 3.03657 9.18164 4.59473V9.83203H8.18164V4.59473C8.18164 2.48429 9.89249 0.773438 12.0029 0.773438Z" fill="#2D2D2D"/>
</svg>
