<svg width="131" height="24" viewBox="0 0 131 24" fill="none" xmlns="http://www.w3.org/2000/svg">
<g clip-path="url(#clip0_1363_1227)">
<path d="M11.6498 23.5C9.31333 23.5 7.26894 23.0852 5.51661 22.2589C3.76427 21.4325 2.40784 20.2794 1.44405 18.8026C0.480269 17.3258 0 15.6134 0 13.6653C0 11.7172 0.350467 9.96708 1.05465 8.35519C1.75882 6.74331 2.74857 5.34822 4.02388 4.17623C5.29919 3.00424 6.81463 2.09617 8.56697 1.45833C10.3193 0.820492 12.2436 0.5 14.3432 0.5C16.4427 0.5 18.4644 0.877049 20.1518 1.63115C21.8393 2.38525 23.0951 3.47555 23.9161 4.89891L18.3995 9.07787C17.9225 8.26093 17.3059 7.62623 16.5498 7.17691C15.7937 6.7276 14.8948 6.50137 13.8564 6.50137C12.9478 6.50137 12.1203 6.66475 11.3739 6.98839C10.6276 7.31202 9.98506 7.77391 9.44314 8.3709C8.90121 8.9679 8.47935 9.67486 8.17756 10.4918C7.87577 11.3087 7.72325 12.2105 7.72325 13.194C7.72325 14.0518 7.91796 14.8059 8.30736 15.4563C8.69677 16.1067 9.24194 16.6094 9.94612 16.9645C10.6503 17.3195 11.4648 17.4986 12.3961 17.4986C13.3275 17.4986 14.155 17.3007 15.0084 16.9016C15.8619 16.5026 16.6796 15.8553 17.4584 14.9536L21.9691 19.1325C20.5834 20.7664 19.042 21.9038 17.3449 22.5417C15.6477 23.1795 13.7493 23.5 11.6498 23.5Z" fill="#2D2D2D"/>
<path d="M34.3657 23.5C32.0065 23.5 29.9686 23.0821 28.2487 22.2432C26.5289 21.4042 25.1984 20.248 24.2573 18.7712C23.3162 17.2944 22.8457 15.5914 22.8457 13.6653C22.8457 11.7392 23.1962 9.94194 23.9003 8.33948C24.6045 6.73702 25.5943 5.34822 26.8696 4.17623C28.1449 3.00424 29.6603 2.09617 31.4127 1.45833C33.165 0.820492 35.0796 0.5 37.1564 0.5C39.5156 0.5 41.5535 0.917896 43.2734 1.75683C44.9933 2.59577 46.3237 3.75205 47.2648 5.22883C48.2059 6.7056 48.6764 8.40861 48.6764 10.3347C48.6764 12.2608 48.3259 14.0581 47.6218 15.6605C46.9176 17.263 45.9278 18.6518 44.6525 19.8238C43.3772 20.9958 41.8618 21.9038 40.1094 22.5417C38.3571 23.1795 36.4425 23.5 34.3657 23.5ZM35.0147 17.4986C35.9655 17.4986 36.806 17.3195 37.5296 16.9645C38.2533 16.6094 38.8763 16.1161 39.3955 15.4877C39.9147 14.8593 40.3041 14.1429 40.5638 13.3354C40.8234 12.5279 40.9532 11.6764 40.9532 10.7746C40.9532 9.87282 40.7747 9.16585 40.4177 8.52801C40.0608 7.89016 39.5513 7.39057 38.8925 7.03552C38.2338 6.68046 37.4388 6.50137 36.5074 6.50137C35.5761 6.50137 34.7454 6.68046 34.0087 7.03552C33.2721 7.39057 32.6458 7.88388 32.1266 8.5123C31.6074 9.14071 31.218 9.8571 30.9584 10.6646C30.6988 11.4721 30.569 12.3236 30.569 13.2254C30.569 14.0643 30.7474 14.8059 31.1044 15.4563C31.4613 16.1067 31.9708 16.6094 32.6296 16.9645C33.2883 17.3195 34.0834 17.4986 35.0147 17.4986Z" fill="#2D2D2D"/>
<path d="M48.2871 22.9965L52.8302 1.00195H63.0846C65.4859 1.00195 67.5531 1.379 69.2827 2.1331C71.0123 2.8872 72.3428 3.96179 73.2741 5.35373C74.2054 6.74567 74.6695 8.40783 74.6695 10.3339C74.6695 12.26 74.319 14.0321 73.6148 15.5812C72.9107 17.1302 71.9274 18.4625 70.6618 19.5716C69.3962 20.6808 67.897 21.5291 66.1674 22.1167C64.4378 22.7043 62.5329 22.9965 60.4561 22.9965H48.2871ZM57.1461 17.2151H60.7157C62.0786 17.2151 63.2209 16.926 64.1392 16.351C65.0576 15.776 65.7553 14.9999 66.2323 14.0259C66.7093 13.0518 66.9462 11.9678 66.9462 10.7738C66.9462 9.91603 66.7677 9.19335 66.4108 8.60578C66.0538 8.01821 65.5249 7.56889 64.8207 7.25469C64.1165 6.94048 63.2469 6.78337 62.2084 6.78337H59.2879L57.1461 17.2151Z" fill="#2D2D2D"/>
<path d="M74.2793 22.9965L78.8224 1.00195H86.4807L81.9377 22.9965H74.2793Z" fill="#2D2D2D"/>
<path d="M85.7676 16.5876L86.8709 11.2461H96.6061L95.5028 16.5876H85.7676Z" fill="#2D2D2D"/>
<path d="M96.6699 22.9965L101.213 1.00195H108.871L104.328 22.9965H96.6699Z" fill="#2D2D2D"/>
<path d="M112.146 22.9965L115.488 6.75195H108.836L110.037 1.00195H131L129.799 6.75195H123.147L119.804 22.9965H112.146Z" fill="#2D2D2D"/>
</g>
<defs>
<clipPath id="clip0_1363_1227">
<rect width="131" height="23" fill="white" transform="translate(0 0.5)"/>
</clipPath>
</defs>
</svg>
