<svg width="18" height="18" viewBox="0 0 18 18" fill="none" xmlns="http://www.w3.org/2000/svg">
<path fill-rule="evenodd" clip-rule="evenodd" d="M8.58268 1.29102C4.55561 1.29102 1.29102 4.55561 1.29102 8.58268C1.29102 12.6098 4.55561 15.8743 8.58268 15.8743C12.6098 15.8743 15.8743 12.6098 15.8743 8.58268C15.8743 4.55561 12.6098 1.29102 8.58268 1.29102ZM0.0410156 8.58268C0.0410156 3.86525 3.86525 0.0410156 8.58268 0.0410156C13.3001 0.0410156 17.1243 3.86525 17.1243 8.58268C17.1243 10.7164 16.342 12.6675 15.0484 14.1645L17.7746 16.8907C18.0187 17.1348 18.0187 17.5305 17.7746 17.7746C17.5305 18.0187 17.1348 18.0187 16.8907 17.7746L14.1645 15.0484C12.6675 16.342 10.7164 17.1243 8.58268 17.1243C3.86525 17.1243 0.0410156 13.3001 0.0410156 8.58268Z" fill="#2D2D2D"/>
</svg>
