<svg width="49" height="49" viewBox="0 0 49 49" fill="none" xmlns="http://www.w3.org/2000/svg">
<path d="M18.6864 11.0423C21.2725 6.40309 22.5655 4.0835 24.4987 4.0835C26.4319 4.0835 27.7249 6.40308 30.311 11.0423L30.98 12.2425C31.7149 13.5608 32.0824 14.2199 32.6553 14.6549C33.2282 15.0898 33.9417 15.2512 35.3688 15.5741L36.668 15.8681C41.6898 17.0043 44.2007 17.5724 44.7981 19.4934C45.3955 21.4145 43.6837 23.4162 40.2602 27.4196L39.3744 28.4553C38.4016 29.593 37.9151 30.1618 37.6963 30.8655C37.4775 31.5692 37.551 32.3281 37.6981 33.846L37.832 35.2279C38.3496 40.5693 38.6084 43.24 37.0444 44.4273C35.4805 45.6145 33.1295 44.5321 28.4275 42.3671L27.2111 41.807C25.8749 41.1918 25.2069 40.8842 24.4987 40.8842C23.7905 40.8842 23.1225 41.1918 21.7863 41.807L20.5699 42.3671C15.8679 44.5321 13.5169 45.6145 11.953 44.4273C10.389 43.24 10.6478 40.5693 11.1654 35.2279L11.2993 33.846C11.4464 32.3281 11.5199 31.5692 11.3011 30.8655C11.0823 30.1618 10.5958 29.593 9.62295 28.4553L8.73723 27.4196C5.31366 23.4162 3.60188 21.4145 4.19927 19.4934C4.79665 17.5724 7.30757 17.0043 12.3294 15.8681L13.6286 15.5741C15.0557 15.2512 15.7692 15.0898 16.3421 14.6549C16.915 14.2199 17.2825 13.5608 18.0174 12.2425L18.6864 11.0423Z" fill="#D3D3D3"/>
</svg>
